<svg height="512pt" viewBox="0 0 512 512" width="512pt" xmlns="http://www.w3.org/2000/svg"><path d="m8.535156 85.332031h8.53125c4.714844 0 8.535156 3.820313 8.535156 8.535157v34.132812c0 4.710938-3.820312 8.535156-8.535156 8.535156h-8.53125c-4.714844 0-8.535156-3.824218-8.535156-8.535156v-34.132812c0-4.714844 3.820312-8.535157 8.535156-8.535157zm0 0" fill="#2c3e50"/><path d="m8.535156 153.601562h8.53125c4.714844 0 8.535156 3.820313 8.535156 8.53125v34.132813c0 4.714844-3.820312 8.535156-8.535156 8.535156h-8.53125c-4.714844 0-8.535156-3.820312-8.535156-8.535156v-34.132813c0-4.710937 3.820312-8.53125 8.535156-8.53125zm0 0" fill="#2c3e50"/><path d="m469.332031 34.132812c-2.261719 0-4.433593-.898437-6.03125-2.5l-11.035156-11.035156-11.03125 11.035156c-3.347656 3.234376-8.671875 3.1875-11.964844-.105468-3.289062-3.289063-3.335937-8.613282-.101562-11.960938l17.066406-17.066406c3.332031-3.332031 8.734375-3.332031 12.066406 0l17.066407 17.066406c2.4375 2.441406 3.167968 6.109375 1.847656 9.300782-1.320313 3.1875-4.429688 5.265624-7.882813 5.265624zm0 0" fill="#ff5364"/><path d="m452.265625 68.265625c-4.710937 0-8.53125-3.820313-8.53125-8.53125v-51.199219c0-4.714844 3.820313-8.535156 8.53125-8.535156 4.714844 0 8.535156 3.820312 8.535156 8.535156v51.199219c0 4.710937-3.820312 8.53125-8.535156 8.53125zm0 0" fill="#ff5364"/><path d="m452.265625 136.535156c-4.710937 0-8.53125-3.824218-8.53125-8.535156v-34.132812c0-4.714844 3.820313-8.535157 8.53125-8.535157 4.714844 0 8.535156 3.820313 8.535156 8.535157v34.132812c0 4.710938-3.820312 8.535156-8.535156 8.535156zm0 0" fill="#ff5364"/><path d="m51.199219 8.535156h221.867187c18.851563 0 34.132813 15.28125 34.132813 34.132813v426.664062c0 18.851563-15.28125 34.132813-34.132813 34.132813h-221.867187c-18.851563 0-34.132813-15.28125-34.132813-34.132813v-426.664062c0-18.851563 15.28125-34.132813 34.132813-34.132813zm0 0" fill="#2c3e50"/><path d="m307.199219 42.667969v426.664062c0 18.851563-15.28125 34.132813-34.132813 34.132813h-109.910156v-494.929688h109.910156c18.851563 0 34.132813 15.28125 34.132813 34.132813zm0 0" fill="#35495e"/><path d="m17.066406 76.800781h290.132813v358.398438h-290.132813zm0 0" fill="#8697cb"/><path d="m170.667969 42.667969c0 4.710937-3.820313 8.53125-8.535157 8.53125-4.710937 0-8.53125-3.820313-8.53125-8.53125 0-4.714844 3.820313-8.535157 8.53125-8.535157 4.714844 0 8.535157 3.820313 8.535157 8.535157zm0 0" fill="#2c2f38"/><path d="m196.265625 469.332031c0 18.851563-15.28125 34.132813-34.132813 34.132813-18.851562 0-34.132812-15.28125-34.132812-34.132813 0-18.851562 15.28125-34.132812 34.132812-34.132812 18.851563 0 34.132813 15.28125 34.132813 34.132812zm0 0" fill="#2c2f38"/><path d="m452.265625 273.066406c-4.710937 0-8.53125-3.820312-8.53125-8.53125v-17.070312c0-4.710938 3.820313-8.53125 8.53125-8.53125 4.714844 0 8.535156 3.820312 8.535156 8.53125v17.070312c0 4.710938-3.820312 8.53125-8.535156 8.53125zm0 0" fill="#2c3e50"/><path d="m488.464844 258.066406c-2.265625.003906-4.4375-.894531-6.03125-2.5l-12.066406-12.066406c-3.234376-3.351562-3.1875-8.671875.101562-11.964844 3.292969-3.289062 8.613281-3.335937 11.964844-.101562l12.066406 12.066406c2.4375 2.4375 3.167969 6.109375 1.847656 9.296875-1.320312 3.1875-4.433594 5.265625-7.882812 5.269531zm0 0" fill="#2c3e50"/><path d="m503.464844 221.867188h-17.066406c-4.710938 0-8.53125-3.820313-8.53125-8.535157 0-4.710937 3.820312-8.53125 8.53125-8.53125h17.066406c4.714844 0 8.535156 3.820313 8.535156 8.53125 0 4.714844-3.820312 8.535157-8.535156 8.535157zm0 0" fill="#2c3e50"/><path d="m476.398438 197.734375c-3.449219 0-6.5625-2.078125-7.882813-5.269531-1.320313-3.1875-.589844-6.855469 1.851563-9.296875l12.066406-12.066407c3.347656-3.234374 8.667968-3.1875 11.960937.105469 3.292969 3.289063 3.335938 8.613281.105469 11.960938l-12.066406 12.066406c-1.601563 1.601563-3.773438 2.5-6.035156 2.5zm0 0" fill="#2c3e50"/><path d="m452.265625 187.734375c-4.710937 0-8.53125-3.820313-8.53125-8.535156v-17.066407c0-4.710937 3.820313-8.53125 8.53125-8.53125 4.714844 0 8.535156 3.820313 8.535156 8.53125v17.066407c0 4.714843-3.820312 8.535156-8.535156 8.535156zm0 0" fill="#2c3e50"/><path d="m428.132812 197.734375c-2.261718 0-4.429687-.898437-6.03125-2.5l-12.066406-12.066406c-3.234375-3.347657-3.1875-8.671875.105469-11.960938 3.289063-3.292969 8.613281-3.339843 11.960937-.105469l12.066407 12.066407c2.4375 2.441406 3.167969 6.109375 1.847656 9.296875-1.320313 3.191406-4.429687 5.269531-7.882813 5.269531zm0 0" fill="#2c3e50"/><path d="m418.132812 221.867188h-17.066406c-4.710937 0-8.53125-3.820313-8.53125-8.535157 0-4.710937 3.820313-8.53125 8.53125-8.53125h17.066406c4.714844 0 8.535157 3.820313 8.535157 8.53125 0 4.714844-3.820313 8.535157-8.535157 8.535157zm0 0" fill="#2c3e50"/><path d="m416.066406 258.066406c-3.449218-.003906-6.558594-2.082031-7.878906-5.269531s-.59375-6.859375 1.847656-9.296875l12.066406-12.066406c3.347657-3.234375 8.671876-3.1875 11.960938.101562 3.292969 3.292969 3.339844 8.613282.105469 11.964844l-12.066407 12.066406c-1.597656 1.605469-3.769531 2.503906-6.035156 2.5zm0 0" fill="#2c3e50"/><path d="m51.199219 409.601562c-3.242188-.007812-6.203125-1.851562-7.636719-4.757812-1.433594-2.910156-1.097656-6.378906.871094-8.957031l221.867187-290.132813c1.808594-2.539062 4.855469-3.886718 7.953125-3.519531 3.09375.367187 5.742188 2.390625 6.910156 5.28125 1.164063 2.890625.660157 6.1875-1.3125 8.597656l-221.867187 290.132813c-1.617187 2.113281-4.125 3.355468-6.785156 3.355468zm0 0" fill="#f0c419"/><path d="m273.066406 409.601562c-2.660156 0-5.167968-1.242187-6.785156-3.355468l-221.867188-290.132813c-2.667968-3.746093-1.886718-8.9375 1.769532-11.734375 3.652344-2.792968 8.867187-2.1875 11.785156 1.375l221.863281 290.132813c1.96875 2.578125 2.308594 6.046875.871094 8.957031-1.433594 2.90625-4.394531 4.75-7.636719 4.757812zm0 0" fill="#f0c419"/><path d="m85.332031 409.601562h-34.132812c-4.710938 0-8.53125-3.820312-8.53125-8.535156v-34.132812c0-4.714844 3.820312-8.535156 8.53125-8.535156 4.714843 0 8.535156 3.820312 8.535156 8.535156v25.601562h25.597656c4.714844 0 8.535157 3.820313 8.535157 8.53125 0 4.714844-3.820313 8.535156-8.535157 8.535156zm0 0" fill="#f0c419"/><path d="m273.066406 409.601562h-34.132812c-4.714844 0-8.535156-3.820312-8.535156-8.535156 0-4.710937 3.820312-8.53125 8.535156-8.53125h25.601562v-25.601562c0-4.714844 3.820313-8.535156 8.53125-8.535156 4.714844 0 8.535156 3.820312 8.535156 8.535156v34.132812c0 4.714844-3.820312 8.535156-8.535156 8.535156zm0 0" fill="#f0c419"/><path d="m51.199219 153.601562c-4.710938 0-8.53125-3.820312-8.53125-8.535156v-34.132812c0-4.714844 3.820312-8.535156 8.53125-8.535156h34.132812c4.714844 0 8.535157 3.820312 8.535157 8.535156 0 4.710937-3.820313 8.53125-8.535157 8.53125h-25.597656v25.601562c0 4.714844-3.820313 8.535156-8.535156 8.535156zm0 0" fill="#f0c419"/><path d="m273.066406 153.601562c-4.710937 0-8.53125-3.820312-8.53125-8.535156v-25.601562h-25.601562c-4.714844 0-8.535156-3.820313-8.535156-8.53125 0-4.714844 3.820312-8.535156 8.535156-8.535156h34.132812c4.714844 0 8.535156 3.820312 8.535156 8.535156v34.132812c0 4.714844-3.820312 8.535156-8.535156 8.535156zm0 0" fill="#f0c419"/><path d="m486.398438 213.332031c0 18.851563-15.28125 34.132813-34.132813 34.132813s-34.132813-15.28125-34.132813-34.132813c0-18.851562 15.28125-34.132812 34.132813-34.132812s34.132813 15.28125 34.132813 34.132812zm0 0" fill="#90bae1"/><g fill="#2c3e50"><path d="m460.800781 213.332031c0 4.714844-3.820312 8.535157-8.535156 8.535157-4.710937 0-8.53125-3.820313-8.53125-8.535157 0-4.710937 3.820313-8.53125 8.53125-8.53125 4.714844 0 8.535156 3.820313 8.535156 8.53125zm0 0"/><path d="m392.535156 392.535156c-4.714844 0-8.535156-3.824218-8.535156-8.535156v-17.066406c0-4.714844 3.820312-8.535156 8.535156-8.535156 4.710938 0 8.53125 3.820312 8.53125 8.535156v17.066406c0 4.710938-3.820312 8.535156-8.53125 8.535156zm0 0"/><path d="m428.730469 377.53125c-2.261719.007812-4.4375-.894531-6.03125-2.5l-12.066407-12.066406c-3.234374-3.347656-3.1875-8.671875.105469-11.960938 3.289063-3.292968 8.613281-3.339844 11.960938-.105468l12.066406 12.066406c2.4375 2.441406 3.167969 6.109375 1.847656 9.300781-1.320312 3.1875-4.429687 5.265625-7.882812 5.265625zm0 0"/><path d="m443.734375 341.332031h-17.066406c-4.714844 0-8.535157-3.820312-8.535157-8.53125 0-4.714843 3.820313-8.535156 8.535157-8.535156h17.066406c4.710937 0 8.53125 3.820313 8.53125 8.535156 0 4.710938-3.820313 8.53125-8.53125 8.53125zm0 0"/><path d="m416.664062 317.199219c-3.449218 0-6.558593-2.078125-7.878906-5.265625-1.320312-3.1875-.59375-6.859375 1.847656-9.300782l12.066407-12.0625c3.347656-3.234374 8.671875-3.1875 11.960937.101563 3.292969 3.292969 3.339844 8.613281.105469 11.960937l-12.066406 12.066407c-1.601563 1.601562-3.769531 2.5-6.035157 2.5zm0 0"/><path d="m392.535156 307.199219c-4.714844 0-8.535156-3.820313-8.535156-8.53125v-17.066407c0-4.714843 3.820312-8.535156 8.535156-8.535156 4.710938 0 8.53125 3.820313 8.53125 8.535156v17.066407c0 4.710937-3.820312 8.53125-8.53125 8.53125zm0 0"/><path d="m368.402344 317.199219c-2.265625 0-4.433594-.898438-6.035156-2.5l-12.066407-12.066407c-3.234375-3.347656-3.1875-8.667968.105469-11.960937 3.292969-3.289063 8.613281-3.335937 11.960938-.101563l12.066406 12.0625c2.441406 2.441407 3.171875 6.113282 1.847656 9.300782-1.320312 3.1875-4.429688 5.265625-7.878906 5.265625zm0 0"/><path d="m358.398438 341.332031h-17.066407c-4.710937 0-8.53125-3.820312-8.53125-8.53125 0-4.714843 3.820313-8.535156 8.53125-8.535156h17.066407c4.714843 0 8.535156 3.820313 8.535156 8.535156 0 4.710938-3.820313 8.53125-8.535156 8.53125zm0 0"/><path d="m356.335938 377.53125c-3.453126 0-6.5625-2.078125-7.882813-5.265625-1.320313-3.191406-.589844-6.859375 1.847656-9.300781l12.066407-12.066406c3.347656-3.234376 8.671874-3.1875 11.964843.105468 3.289063 3.289063 3.335938 8.613282.101563 11.960938l-12.066406 12.066406c-1.59375 1.605469-3.769532 2.507812-6.03125 2.5zm0 0"/></g><path d="m426.667969 332.800781c0 18.851563-15.285157 34.132813-34.132813 34.132813-18.851562 0-34.136718-15.28125-34.136718-34.132813 0-18.851562 15.285156-34.132812 34.136718-34.132812 18.847656 0 34.132813 15.28125 34.132813 34.132812zm0 0" fill="#90bae1"/><path d="m401.066406 332.800781c0 4.710938-3.820312 8.53125-8.53125 8.53125-4.714844 0-8.535156-3.820312-8.535156-8.53125 0-4.714843 3.820312-8.535156 8.535156-8.535156 4.710938 0 8.53125 3.820313 8.53125 8.535156zm0 0" fill="#2c3e50"/><path d="m452.265625 512c-4.710937 0-8.53125-3.820312-8.53125-8.535156v-17.066406c0-4.710938 3.820313-8.53125 8.53125-8.53125 4.714844 0 8.535156 3.820312 8.535156 8.53125v17.066406c0 4.714844-3.820312 8.535156-8.535156 8.535156zm0 0" fill="#2c3e50"/><path d="m488.464844 497c-2.265625.003906-4.4375-.894531-6.03125-2.5l-12.066406-12.066406c-3.234376-3.351563-3.1875-8.671875.101562-11.964844 3.292969-3.289062 8.613281-3.335938 11.964844-.101562l12.066406 12.066406c2.4375 2.4375 3.167969 6.109375 1.847656 9.296875-1.320312 3.1875-4.433594 5.265625-7.882812 5.269531zm0 0" fill="#2c3e50"/><path d="m503.464844 460.800781h-17.066406c-4.710938 0-8.53125-3.820312-8.53125-8.535156 0-4.710937 3.820312-8.53125 8.53125-8.53125h17.066406c4.714844 0 8.535156 3.820313 8.535156 8.53125 0 4.714844-3.820312 8.535156-8.535156 8.535156zm0 0" fill="#2c3e50"/><path d="m476.398438 436.667969c-3.449219 0-6.5625-2.078125-7.882813-5.269531-1.320313-3.1875-.589844-6.855469 1.851563-9.296876l12.066406-12.066406c3.347656-3.234375 8.667968-3.1875 11.960937.105469 3.292969 3.289063 3.335938 8.613281.105469 11.960937l-12.066406 12.066407c-1.601563 1.601562-3.773438 2.5-6.035156 2.5zm0 0" fill="#2c3e50"/><path d="m452.265625 426.667969c-4.710937 0-8.53125-3.820313-8.53125-8.535157v-17.066406c0-4.710937 3.820313-8.53125 8.53125-8.53125 4.714844 0 8.535156 3.820313 8.535156 8.53125v17.066406c0 4.714844-3.820312 8.535157-8.535156 8.535157zm0 0" fill="#2c3e50"/><path d="m428.132812 436.667969c-2.261718 0-4.429687-.898438-6.03125-2.5l-12.066406-12.066407c-3.234375-3.347656-3.1875-8.671874.105469-11.960937 3.289063-3.292969 8.613281-3.339844 11.960937-.105469l12.066407 12.066406c2.4375 2.441407 3.167969 6.109376 1.847656 9.296876-1.320313 3.191406-4.429687 5.269531-7.882813 5.269531zm0 0" fill="#2c3e50"/><path d="m418.132812 460.800781h-17.066406c-4.710937 0-8.53125-3.820312-8.53125-8.535156 0-4.710937 3.820313-8.53125 8.53125-8.53125h17.066406c4.714844 0 8.535157 3.820313 8.535157 8.53125 0 4.714844-3.820313 8.535156-8.535157 8.535156zm0 0" fill="#2c3e50"/><path d="m416.066406 497c-3.449218-.003906-6.558594-2.082031-7.878906-5.269531s-.59375-6.859375 1.847656-9.296875l12.066406-12.066406c3.347657-3.234376 8.671876-3.1875 11.960938.101562 3.292969 3.292969 3.339844 8.613281.105469 11.964844l-12.066407 12.066406c-1.597656 1.605469-3.769531 2.503906-6.035156 2.5zm0 0" fill="#2c3e50"/><path d="m486.398438 452.265625c0 18.851563-15.28125 34.132813-34.132813 34.132813s-34.132813-15.28125-34.132813-34.132813 15.28125-34.132813 34.132813-34.132813 34.132813 15.28125 34.132813 34.132813zm0 0" fill="#90bae1"/><path d="m460.800781 452.265625c0 4.714844-3.820312 8.535156-8.535156 8.535156-4.710937 0-8.53125-3.820312-8.53125-8.535156 0-4.710937 3.820313-8.53125 8.53125-8.53125 4.714844 0 8.535156 3.820313 8.535156 8.53125zm0 0" fill="#2c3e50"/></svg>